<svg width="26" height="33" viewBox="0 0 26 33" fill="none" xmlns="http://www.w3.org/2000/svg">
<path fill-rule="evenodd" clip-rule="evenodd" d="M10.8097 30.2672L13 32.2192L15.1903 30.2672C22.1845 24.0341 25.75 18.4972 25.75 13.3143C25.75 5.95615 20.1031 0.345215 13 0.345215C5.8969 0.345215 0.25 5.95615 0.25 13.3143C0.25 18.4972 3.81552 24.0341 10.8097 30.2672ZM13 4.52392C17.7619 4.52392 21.5 8.23815 21.5 13.243C21.5 16.791 18.7418 21.1985 13 26.4478C7.25824 21.1985 4.5 16.791 4.5 13.243C4.5 8.23815 8.23805 4.52392 13 4.52392ZM13 6.69834C16.5208 6.69834 19.375 9.55596 19.375 13.081C19.375 16.6061 16.5208 19.4637 13 19.4637C9.47919 19.4637 6.625 16.6061 6.625 13.081C6.625 9.55596 9.47919 6.69834 13 6.69834ZM10.875 12.9895C10.875 11.7611 11.8264 10.7654 13 10.7654C14.1736 10.7654 15.125 11.7611 15.125 12.9895C15.125 14.2178 14.1736 15.2135 13 15.2135C11.8264 15.2135 10.875 14.2178 10.875 12.9895Z" fill="#7E7B7B"/>
</svg>
