<svg width="13" height="13" viewBox="0 0 13 13" fill="none" xmlns="http://www.w3.org/2000/svg">
<path fill-rule="evenodd" clip-rule="evenodd" d="M5.66253 12.2144L6.5 12.9533L7.33747 12.2144C10.0117 9.85487 11.375 7.75896 11.375 5.79703C11.375 3.01166 9.21589 0.887695 6.5 0.887695C3.78411 0.887695 1.625 3.01166 1.625 5.79703C1.625 7.75896 2.98829 9.85487 5.66253 12.2144ZM6.5 2.46937C8.32074 2.46937 9.75 3.87536 9.75 5.7699C9.75 7.11296 8.69538 8.78139 6.5 10.7684C4.30462 8.78139 3.25 7.11296 3.25 5.7699C3.25 3.87536 4.67926 2.46937 6.5 2.46937ZM6.5 3.29276C7.84619 3.29276 8.9375 4.37448 8.9375 5.70886C8.9375 7.04323 7.84619 8.12496 6.5 8.12496C5.15381 8.12496 4.0625 7.04323 4.0625 5.70886C4.0625 4.37448 5.15381 3.29276 6.5 3.29276ZM5.6875 5.67399C5.6875 5.20903 6.05127 4.8321 6.5 4.8321C6.94873 4.8321 7.3125 5.20903 7.3125 5.67399C7.3125 6.13896 6.94873 6.51588 6.5 6.51588C6.05127 6.51588 5.6875 6.13896 5.6875 5.67399Z" fill="white"/>
</svg>
