<svg width="12" height="12" viewBox="0 0 12 12" fill="none" xmlns="http://www.w3.org/2000/svg">
<path fill-rule="evenodd" clip-rule="evenodd" d="M5.70759 6.22864C5.30142 5.82615 4.96577 5.39123 4.78767 5.03889C4.72919 4.9232 4.69281 4.82615 4.67684 4.75677L5.03709 4.39991C5.11611 4.3216 5.1541 4.28347 5.20321 4.23238C5.30723 4.12415 5.39396 4.02524 5.47026 3.92344C5.81351 3.4655 5.94107 2.96697 5.53475 2.51807C4.76543 1.45266 4.24788 0.793697 3.91607 0.469202C3.23142 -0.200347 2.11599 -0.110651 1.52223 0.468541C1.23553 0.748208 1.13808 0.844639 0.843687 1.14066C-0.875573 2.84361 0.149799 6.36422 2.85904 9.04897C5.56782 11.7333 9.12416 12.749 10.848 11.0415C11.1186 10.7833 11.3498 10.5543 11.5328 10.3628C12.1121 9.7567 12.1995 8.69996 11.5284 8.0096C11.2093 7.68133 10.5746 7.19376 9.45208 6.39868C9.04148 6.03829 8.56124 6.11646 8.13457 6.39358C7.94238 6.5184 7.80716 6.64048 7.55255 6.8928L7.19267 7.24927C7.12268 7.23345 7.02479 7.19747 6.90812 7.13963C6.55239 6.96326 6.11345 6.63084 5.70759 6.22864ZM8.16599 8.4956L8.61299 8.05283C8.68934 7.97717 8.74973 7.9188 8.79967 7.873C9.70474 8.51893 10.2344 8.92973 10.4483 9.14976C10.521 9.22456 10.5076 9.38648 10.4439 9.45316C10.2784 9.62628 10.0627 9.83999 9.79747 10.0932C8.81891 11.0623 6.12078 10.2917 3.9196 8.11039C1.71757 5.92826 0.939363 3.25628 1.90798 2.29682C2.20085 2.00236 2.29296 1.91122 2.57441 1.63667C2.61909 1.59308 2.80351 1.57825 2.86257 1.63601C3.0936 1.86195 3.52618 2.4078 4.15847 3.27597C4.14549 3.28996 4.13173 3.30453 4.11718 3.31967C4.07915 3.35923 4.04711 3.39139 3.97656 3.4613L3.52984 3.90379C2.66973 4.75522 3.35227 6.10548 4.64706 7.38857C5.9411 8.67091 7.30589 9.34756 8.16599 8.4956Z" fill="white"/>
</svg>
