<svg width="30" height="28" viewBox="0 0 30 28" fill="none" xmlns="http://www.w3.org/2000/svg">
<path fill-rule="evenodd" clip-rule="evenodd" d="M14.269 14.6798C13.2536 13.7312 12.4144 12.7062 11.9692 11.8758C11.823 11.6032 11.732 11.3744 11.6921 11.2109L12.5927 10.3698C12.7903 10.1853 12.8853 10.0954 13.008 9.97499C13.2681 9.7199 13.4849 9.48679 13.6757 9.24688C14.5338 8.16759 14.8527 6.99265 13.8369 5.93466C11.9136 3.42367 10.6197 1.87061 9.79018 1.10583C8.07856 -0.472184 5.28998 -0.260785 3.80558 1.10427C3.08883 1.7634 2.84519 1.99067 2.10922 2.68835C-2.18893 6.70191 0.374497 14.9994 7.14761 21.3269C13.9196 27.6533 22.8104 30.0473 27.1199 26.023C27.7964 25.4144 28.3746 24.8746 28.832 24.4234C30.2801 22.9949 30.4988 20.5043 28.821 18.8773C28.0231 18.1036 26.4365 16.9545 23.6302 15.0806C22.6037 14.2312 21.4031 14.4155 20.3364 15.0686C19.856 15.3628 19.5179 15.6505 18.8814 16.2451L17.9817 17.0853C17.8067 17.048 17.562 16.9632 17.2703 16.8269C16.381 16.4112 15.2836 15.6277 14.269 14.6798ZM20.4149 20.0224L21.5324 18.9788C21.7233 18.8005 21.8743 18.663 21.9991 18.555C24.2618 20.0774 25.5859 21.0455 26.1206 21.5641C26.3024 21.7404 26.2689 22.122 26.1096 22.2792C25.696 22.6872 25.1566 23.1909 24.4937 23.7876C22.0472 26.0717 15.3019 24.2554 9.79896 19.1145C4.29389 13.9716 2.34837 7.67417 4.76992 5.41291C5.50209 4.71891 5.73236 4.50411 6.43598 3.85705C6.5477 3.75431 7.00874 3.71936 7.15639 3.85549C7.73396 4.38798 8.81541 5.67445 10.3961 7.72059C10.3637 7.75357 10.3293 7.78789 10.2929 7.82358C10.1978 7.91682 10.1177 7.9926 9.94136 8.15738C9.58688 8.4885 9.43212 8.63306 9.27734 8.77758C9.1574 8.88957 9.03745 9.00153 8.82456 9.20026C6.6743 11.2069 8.38065 14.3893 11.6176 17.4133C14.8527 20.4355 18.2647 22.0303 20.4149 20.0224Z" fill="#7E7B7B"/>
</svg>
